<svg width="17" height="15" viewBox="0 0 17 15" fill="none" xmlns="http://www.w3.org/2000/svg">
<path d="M9.90625 0.746094L16.0938 6.65234C16.2695 6.82812 16.375 7.03906 16.375 7.28516C16.375 7.49609 16.2695 7.70703 16.0938 7.88281L9.90625 13.7891C9.58984 14.1055 9.02734 14.1055 8.71094 13.7539C8.39453 13.4375 8.39453 12.875 8.74609 12.5586L13.4219 8.12891H1.46875C0.976562 8.12891 0.625 7.74219 0.625 7.28516C0.625 6.79297 0.976562 6.44141 1.46875 6.44141H13.4219L8.74609 1.97656C8.39453 1.66016 8.39453 1.09766 8.71094 0.78125C9.02734 0.429688 9.55469 0.429688 9.90625 0.746094Z" fill="white"/>
</svg>
