<svg width="17" height="18" viewBox="0 0 17 18" fill="none" xmlns="http://www.w3.org/2000/svg">
<path d="M16.875 8.98047C16.875 9.33203 16.5625 9.60547 16.25 9.60547H9.375V16.4805C9.375 16.832 9.0625 17.1445 8.75 17.1445C8.39844 17.1445 8.125 16.832 8.125 16.4805V9.60547H1.25C0.898438 9.60547 0.625 9.33203 0.625 9.01953C0.625 8.66797 0.898438 8.35547 1.25 8.35547H8.125V1.48047C8.125 1.16797 8.39844 0.894531 8.75 0.894531C9.0625 0.894531 9.375 1.16797 9.375 1.48047V8.35547H16.25C16.5625 8.35547 16.875 8.66797 16.875 8.98047Z" fill="black"/>
</svg>
